<svg xmlns="http://www.w3.org/2000/svg" viewBox="0 0 96 96" role="img" aria-labelledby="title desc">
  <title id="title">EC Lernstudio Logo</title>
  <desc id="desc">Stilisiertes EC-Monogramm mit Lernportal-Karten und Datenpunkten</desc>
  <defs>
    <linearGradient id="bg" x1="8" y1="8" x2="88" y2="88" gradientUnits="userSpaceOnUse">
      <stop stop-color="#071827"/>
      <stop offset="0.55" stop-color="#0b4d67"/>
      <stop offset="1" stop-color="#20bfd2"/>
    </linearGradient>
    <linearGradient id="accent" x1="24" y1="22" x2="76" y2="78" gradientUnits="userSpaceOnUse">
      <stop stop-color="#78e2df"/>
      <stop offset="1" stop-color="#ffbd7a"/>
    </linearGradient>
  </defs>
  <rect x="4" y="4" width="88" height="88" rx="20" fill="#f8fbfb"/>
  <rect x="10" y="10" width="76" height="76" rx="16" fill="url(#bg)"/>
  <path d="M25 28h30M25 48h25M25 68h32" fill="none" stroke="#78e2df" stroke-width="7" stroke-linecap="round"/>
  <path d="M67 29c-8-5-20-1-20 19s12 24 22 18" fill="none" stroke="#ffffff" stroke-width="7" stroke-linecap="round"/>
  <path d="M66 38h10M66 58h10" fill="none" stroke="#ffbd7a" stroke-width="6" stroke-linecap="round"/>
  <circle cx="27" cy="28" r="3" fill="#ffffff"/>
  <circle cx="27" cy="48" r="3" fill="#ffffff"/>
  <circle cx="27" cy="68" r="3" fill="#ffffff"/>
  <rect x="34" y="35" width="20" height="26" rx="5" fill="none" stroke="url(#accent)" stroke-width="3"/>
  <path d="M39 44h10M39 52h7" stroke="#ffffff" stroke-width="3" stroke-linecap="round"/>
</svg>
